<?xml version="1.0" encoding="UTF-8"?>
<svg version="1.1" xmlns="http://www.w3.org/2000/svg" width="1024" height="1024">
<path d="M0 0 C3.43433234 2.13787188 6.94178108 3.90832297 10.58203125 5.66015625 C14.58647801 7.68390891 18.41502832 9.99692401 22.265625 12.296875 C25.16734915 13.9697269 28.12905901 15.44929503 31.125 16.9453125 C33.03003456 18.03352726 34.92578407 19.13813797 36.8125 20.2578125 C41.44605398 22.97910611 46.11397899 25.60733567 50.83984375 28.1640625 C55.13161672 30.49111182 59.409851 32.84242294 63.6875 35.1953125 C64.54384033 35.66630371 65.40018066 36.13729492 66.2824707 36.62255859 C74.21934538 40.99135811 82.14120124 45.38698509 90.05639648 49.79492188 C91.46646877 50.57909048 92.87747919 51.36157397 94.28930664 52.14257812 C99.95112736 55.27678922 105.57365113 58.47609812 111.1875 61.6953125 C122.34534226 68.08235821 133.53316738 74.4129031 144.78515625 80.6328125 C149.07900164 83.0413802 153.33610058 85.51530768 157.59765625 87.98046875 C160.05018273 89.37296686 162.53373538 90.66556013 165.0625 91.9140625 C169.14567402 93.93035377 173.10563949 96.13063869 177.0625 98.3828125 C178.47127057 99.17983527 179.88012407 99.9767115 181.2890625 100.7734375 C181.95454102 101.15048828 182.62001953 101.52753906 183.30566406 101.91601562 C191.47705729 106.53901534 199.71888259 111.0394322 207.98828125 115.484375 C212.78064632 118.06946819 217.45240033 120.74159825 222.04296875 123.66796875 C226.29817653 126.27857465 230.72934425 128.58212138 235.125 130.9453125 C237.87248795 132.4414693 240.61788097 133.94142293 243.36328125 135.44140625 C245.2329117 136.45952184 247.10540381 137.4723969 248.98046875 138.48046875 C253.77467187 141.06603209 258.44953713 143.73629234 263.0390625 146.66796875 C266.39027123 148.72011342 269.86455509 150.54092029 273.32421875 152.40234375 C276.03164446 153.89388232 278.6736804 155.46107843 281.3125 157.0703125 C284.78464696 159.17976442 288.28339193 161.05219569 291.9375 162.8203125 C294.69078709 164.23628872 297.33569837 165.80598092 300 167.3828125 C303.57539114 169.49149081 307.14267862 171.50441876 310.875 173.3203125 C317.51897392 176.56179897 323.89958895 180.27800071 330.32470703 183.92773438 C332.58091541 185.2030092 334.85190779 186.45043011 337.125 187.6953125 C339.75718986 189.1472146 342.29237888 190.68249794 344.8125 192.3203125 C349.01459035 194.99284196 353.45149219 197.15859406 357.91186523 199.35668945 C365.34576877 203.02424154 372.44157412 207.12098414 379.52734375 211.4140625 C382.17258661 212.97336355 384.85498012 214.43469376 387.5625 215.8828125 C399.56384287 222.37645694 409.06525118 228.85842797 417.125 239.9453125 C417.59164062 240.51507813 418.05828125 241.08484375 418.5390625 241.671875 C427.38104767 253.5515974 426.70746848 271.6398034 426.63293457 285.73135376 C426.63755512 287.6617722 426.6439157 289.59218712 426.65184355 291.52259481 C426.66840129 296.77566945 426.66035281 302.02845002 426.64789867 307.28152514 C426.63879462 312.96665886 426.65284423 318.65174436 426.66381836 324.33686829 C426.6815506 335.45311652 426.67778744 346.56925636 426.6661678 357.68550874 C426.65711376 366.72337607 426.65591798 375.76121314 426.66026306 384.79908371 C426.66087599 386.08811902 426.66148893 387.37715434 426.66212043 388.70525133 C426.6633994 391.32433102 426.66469626 393.94341071 426.6660108 396.56249039 C426.67707653 420.38898437 426.66562532 444.21541691 426.64464041 468.04190109 C426.62565581 489.76234061 426.62736276 511.4826863 426.64648438 533.203125 C426.66793168 557.64662448 426.67630684 582.09006377 426.66403532 606.53357255 C426.66276119 609.14210597 426.66150371 611.75063939 426.66026306 614.35917282 C426.65964596 615.64245114 426.65902886 616.92572947 426.65839306 618.24789501 C426.65494603 627.2710463 426.66075444 636.29416421 426.67018127 645.31731033 C426.68142299 656.31885609 426.67831534 667.32028775 426.6570583 678.32182051 C426.64657785 683.92992953 426.64237479 689.53784861 426.65565491 695.14595604 C426.66764668 700.28791596 426.66090514 705.42951135 426.6397447 710.5714386 C426.6353073 712.4231209 426.63747976 714.27483453 426.64724785 716.12649639 C426.73076095 733.28477969 424.95044949 750.95418001 412.4375 764.0078125 C406.54435484 768.9453125 406.54435484 768.9453125 404.125 768.9453125 C403.795 769.9353125 403.465 770.9253125 403.125 771.9453125 C401.04296875 773.3046875 401.04296875 773.3046875 398.3125 774.6953125 C393.09140904 777.421429 388.01388654 780.32639621 382.94921875 783.33203125 C380.0554966 784.98501499 377.105544 786.4550405 374.125 787.9453125 C371.17289973 789.5442029 368.2427249 791.18174845 365.3125 792.8203125 C363.78515625 793.671875 362.2578125 794.5234375 360.73046875 795.375 C359.97169434 795.7987793 359.21291992 796.22255859 358.43115234 796.65917969 C356.11904634 797.94863283 353.80385566 799.2324129 351.48828125 800.515625 C347.68272014 802.62885992 343.90009759 804.77812684 340.125 806.9453125 C336.30425721 809.1350018 332.48004889 811.31640491 328.625 813.4453125 C325.06456162 815.41326389 321.53004462 817.4233299 318 819.4453125 C311.49027417 823.17328463 304.96619004 826.87566029 298.4375 830.5703125 C297.0131665 831.37758789 297.0131665 831.37758789 295.56005859 832.20117188 C289.94310652 835.37753446 284.30064509 838.49947538 278.62182617 841.56396484 C276.08474616 842.96758259 273.60361297 844.44110774 271.125 845.9453125 C267.81309731 847.95363527 264.47516822 849.87624355 261.0703125 851.72265625 C260.10899414 852.24456543 259.14767578 852.76647461 258.15722656 853.30419922 C257.1565918 853.8457666 256.15595703 854.38733398 255.125 854.9453125 C254.13725586 855.48043457 253.14951172 856.01555664 252.13183594 856.56689453 C248.05888491 858.77225172 243.98482758 860.97555739 239.91015625 863.17773438 C238.40388672 863.99274414 238.40388672 863.99274414 236.8671875 864.82421875 C235.41070801 865.61143311 235.41070801 865.61143311 233.92480469 866.41455078 C230.6130323 868.22522508 227.3340297 870.09029 224.06689453 871.98022461 C222.09696502 872.9592454 220.27268576 873.49725358 218.125 873.9453125 C218.125 874.6053125 218.125 875.2653125 218.125 875.9453125 C217.32578125 876.36941406 216.5265625 876.79351563 215.703125 877.23046875 C210.13326626 880.20498252 204.61498538 883.21518962 199.1875 886.4453125 C194.83148279 889.01853591 190.41411635 891.34581284 185.875 893.5703125 C180.73993912 896.09834247 175.89374695 898.79044279 171.125 901.9453125 C167.33054084 904.39746298 163.56845907 906.78417703 159.5 908.7578125 C155.04180002 910.92122192 150.77303223 913.40087573 146.48339844 915.87548828 C142.76693633 918.01638544 139.0271032 920.0997959 135.25 922.1328125 C132.07299633 923.84923176 128.98040892 925.62639593 125.9375 927.5703125 C123.50968362 929.11883924 121.09150153 930.5031532 118.5 931.7578125 C114.72991413 933.58394784 111.11983488 935.65434133 107.5 937.7578125 C102.66294506 940.56351365 97.77262697 943.17510446 92.75 945.6328125 C88.4369274 947.75587706 84.32601492 949.95003191 80.30078125 952.5703125 C77.35617034 954.43117972 74.33769117 956.15758689 71.3125 957.8828125 C70.7033374 958.23021484 70.0941748 958.57761719 69.46655273 958.93554688 C65.8964611 960.96229041 62.30396125 962.93963929 58.6875 964.8828125 C53.49813365 967.6853783 48.45589887 970.70983509 43.42602539 973.78686523 C39.73419013 976.03305761 35.99989227 978.02422598 32.125 979.9453125 C24.54149863 983.99869551 17.04709482 988.21292241 9.5625 992.4453125 C8.11713867 993.25935547 8.11713867 993.25935547 6.64257812 994.08984375 C1.98730594 996.72040214 -2.61970064 999.39513289 -7.16796875 1002.20703125 C-20.3331686 1010.13982442 -35.79132539 1011.37538437 -50.5234375 1007.9296875 C-58.76406333 1005.50936383 -65.7061231 1001.97812458 -73.125 997.6953125 C-74.14553467 997.11265625 -75.16606934 996.53 -76.2175293 995.9296875 C-81.39441446 992.96887102 -86.54958863 989.97312989 -91.6875 986.9453125 C-95.72436083 984.57068848 -99.82504667 982.44983515 -104.03125 980.39453125 C-107.78221941 978.48297953 -111.45376247 976.44255237 -115.125 974.3828125 C-116.13578613 973.81844482 -116.13578613 973.81844482 -117.16699219 973.24267578 C-121.1923825 970.97104904 -125.03222863 968.51810815 -128.875 965.9453125 C-130.06735817 965.31019927 -131.27428776 964.70089375 -132.5 964.1328125 C-137.1336608 961.88726919 -141.52340325 959.26211216 -145.9453125 956.62890625 C-148.87248694 954.94675667 -151.85514328 953.45331247 -154.875 951.9453125 C-157.15538158 950.66744334 -159.42542068 949.3795383 -161.6875 948.0703125 C-166.2410167 945.44625203 -170.81245195 942.86252588 -175.40942383 940.31542969 C-180.05545425 937.73363716 -184.6836034 935.12016009 -189.3125 932.5078125 C-190.28509766 931.96060547 -191.25769531 931.41339844 -192.25976562 930.84960938 C-197.79894044 927.72295425 -203.28556483 924.52925024 -208.71557617 921.21630859 C-210.69332625 920.05224224 -212.68454027 919.00577271 -214.75 918.0078125 C-221.32646605 914.81201976 -227.54992346 910.93418454 -233.8203125 907.18359375 C-239.12056948 904.03877461 -244.46690392 901.09700629 -250 898.3828125 C-256.99157194 894.9410453 -263.63686509 891.16756195 -270.0625 886.7578125 C-273.21287125 884.72757325 -276.42380071 883.39844904 -279.875 881.9453125 C-284.29728059 879.53315945 -288.5524258 876.92075675 -292.78515625 874.19140625 C-294.91888739 872.88220593 -294.91888739 872.88220593 -297.42578125 871.68359375 C-302.37854322 869.18758121 -307.17747639 866.43276725 -312 863.6953125 C-313.0302832 863.11193115 -314.06056641 862.5285498 -315.12207031 861.92749023 C-321.21613464 858.47152188 -327.28226913 854.97469472 -333.3203125 851.421875 C-336.91190779 849.34599882 -340.5642856 847.38769437 -344.21484375 845.41796875 C-346.87234408 843.94678281 -349.46853527 842.40045285 -352.0625 840.8203125 C-354.91236136 839.08892106 -357.74942235 837.46170064 -360.75 836.0078125 C-365.25245853 833.82452778 -369.51490575 831.2610187 -373.82421875 828.72265625 C-377.41430869 826.63111858 -381.05314894 824.64517779 -384.70703125 822.66796875 C-394.3011617 817.4509385 -403.84199525 812.13350561 -413.3125 806.6953125 C-420.05653012 802.82604176 -426.86930722 799.09672167 -433.71875 795.41796875 C-438.51594997 792.82827151 -443.19561743 790.15683647 -447.7890625 787.22265625 C-451.13925492 785.17113392 -454.61277194 783.35113898 -458.0703125 781.48828125 C-461.63463652 779.52740661 -465.11027474 777.43720103 -468.5859375 775.32421875 C-470.62210651 774.09765278 -472.67583652 772.91846142 -474.75 771.7578125 C-477.29989558 770.27887306 -479.66360127 768.89134338 -481.875 766.9453125 C-481.875 766.2853125 -481.875 765.6253125 -481.875 764.9453125 C-482.865 764.6153125 -483.855 764.2853125 -484.875 763.9453125 C-495.1390163 753.08005676 -499.04190073 738.5960493 -499.00642776 723.93440914 C-499.0084804 723.14122195 -499.01053303 722.34803475 -499.01264787 721.53081158 C-499.01830968 718.86858348 -499.01686162 716.20640725 -499.01544189 713.54417419 C-499.018026 711.61785369 -499.02103929 709.69153373 -499.0244453 707.7652145 C-499.03251325 702.46792935 -499.03430476 697.17065776 -499.03504276 691.87336719 C-499.03689368 686.16151051 -499.04444124 680.44966085 -499.05117798 674.73780823 C-499.06476059 662.24595446 -499.07078597 649.75410391 -499.07518864 637.26224399 C-499.0779513 629.46185218 -499.08218871 621.66146161 -499.08669281 613.86107063 C-499.0988856 592.26311902 -499.10922012 570.66516891 -499.1125679 549.06721401 C-499.11278953 547.67088974 -499.11301132 546.27456546 -499.11323325 544.87824119 C-499.11345389 543.47857847 -499.11367437 542.07891576 -499.1138947 540.67925304 C-499.11433725 537.87137377 -499.11478437 535.0634945 -499.11523438 532.25561523 C-499.11534377 531.55942604 -499.11545316 530.86323684 -499.11556586 530.14595101 C-499.11919553 507.57805481 -499.13511251 485.01019075 -499.15842474 462.44230686 C-499.18303702 438.57215685 -499.19673468 414.70202727 -499.19793582 390.83186394 C-499.19885234 377.82392592 -499.204599 364.81602998 -499.22275543 351.80810356 C-499.23816259 340.73081655 -499.24327323 329.65358462 -499.23501733 318.57628893 C-499.23111298 312.92612675 -499.23203004 307.27607548 -499.24607468 301.62592697 C-499.25882624 296.44855483 -499.25760493 291.2713768 -499.24548396 286.09400488 C-499.24352915 284.22586114 -499.24659536 282.3577036 -499.25532833 280.48957925 C-499.33774476 261.65983624 -496.6923963 245.92277002 -483.609375 231.39453125 C-476.55907113 225.07947336 -468.52080357 220.46733383 -460.1875 216.0703125 C-452.3701834 211.88279394 -444.70658279 207.54610374 -437.1640625 202.8828125 C-434.15825032 201.11216779 -431.13110307 199.54791617 -428.00341797 198.01220703 C-424.15000846 196.08064021 -420.39196231 193.97661572 -416.625 191.8828125 C-415.44164062 191.2321582 -415.44164062 191.2321582 -414.234375 190.56835938 C-413.0896875 189.93317383 -413.0896875 189.93317383 -411.921875 189.28515625 C-410.89852051 188.71849243 -410.89852051 188.71849243 -409.85449219 188.14038086 C-407.8051909 186.94885866 -407.8051909 186.94885866 -405.75878906 185.35375977 C-403.55961683 183.70951085 -401.42973675 182.9672072 -398.875 181.9453125 C-396.69194779 180.7898384 -394.54453095 179.57911856 -392.39453125 178.36328125 C-389.75851233 176.87975432 -387.10024211 175.44275556 -384.4375 174.0078125 C-380.94440077 172.10907391 -377.51600772 170.14540678 -374.125 168.0703125 C-369.15798156 165.04203351 -364.04032652 162.33364345 -358.87597656 159.66064453 C-356.21823831 158.27090061 -354.00943449 157.07974699 -351.875 154.9453125 C-351.194375 154.6771875 -350.51375 154.4090625 -349.8125 154.1328125 C-344.22829795 151.87536912 -339.07310564 148.73709946 -334 145.5078125 C-329.09650119 142.40064494 -323.98690156 139.69085303 -318.875 136.9453125 C-312.22188148 133.3545853 -305.62636563 129.67572364 -299.0715332 125.90893555 C-295.48818924 123.8539484 -291.88410016 121.84648334 -288.25 119.8828125 C-282.379512 116.70332192 -276.63472596 113.31998507 -270.875 109.9453125 C-263.84606197 105.8335869 -256.8131373 101.84503667 -249.5 98.2578125 C-245.11670141 96.10273132 -240.94943957 93.86009637 -236.86328125 91.19140625 C-233.51224572 89.09124842 -230.00150725 87.28213514 -226.51953125 85.41015625 C-224.30139009 84.18149608 -222.18373752 82.89320317 -220.0625 81.5078125 C-215.34340196 78.47899181 -210.28503796 76.12298114 -205.2421875 73.69140625 C-201.93794643 71.97795409 -198.96443532 70.01449664 -195.875 67.9453125 C-193.8843204 66.92688492 -191.88442774 65.92623052 -189.875 64.9453125 C-188.0321343 63.89943326 -186.19896806 62.83631047 -184.375 61.7578125 C-182.80878906 60.83935547 -182.80878906 60.83935547 -181.2109375 59.90234375 C-180.11007812 59.25652344 -179.00921875 58.61070313 -177.875 57.9453125 C-170.84635929 53.83315374 -163.81309694 49.84501688 -156.5 46.2578125 C-152.11670141 44.10273132 -147.94943957 41.86009637 -143.86328125 39.19140625 C-140.51224572 37.09124842 -137.00150725 35.28213514 -133.51953125 33.41015625 C-131.30139009 32.18149608 -129.18373752 30.89320317 -127.0625 29.5078125 C-123.45543207 27.19004778 -119.6617203 25.31998167 -115.8125 23.4453125 C-111.52764175 21.35618596 -107.6169576 19.18268629 -103.84765625 16.26171875 C-99.91564576 13.63778303 -95.53467089 11.72833736 -91.27734375 9.69140625 C-87.95173424 7.98469276 -84.9568682 6.05395916 -81.875 3.9453125 C-79.7633508 2.69877098 -77.62328705 1.53080752 -75.46484375 0.3671875 C-73.62185597 -0.64464893 -71.80351823 -1.70194996 -70.00390625 -2.7890625 C-46.94607738 -16.2610524 -22.18833277 -14.18169382 0 0 Z " fill="#0086D4" transform="translate(538.875,13.0546875)"/>
<path d="M0 0 C0.74228851 -0.00006042 1.48457703 -0.00012085 2.24935913 -0.00018311 C18.38408492 0.01843197 34.38669892 0.9171613 50.31640625 3.625 C53.05124635 4.08133485 55.7819496 4.49071872 58.52734375 4.875 C66.60467234 6.01417797 74.50758 7.14866966 82.3359375 9.51171875 C84.69607637 10.18996464 87.0194532 10.64111399 89.4375 11.0625 C95.72739922 12.25627673 101.70141012 14.41740644 107.73461914 16.5168457 C109.8479252 17.24259289 111.97027512 17.93741764 114.09375 18.6328125 C118.66358473 20.15219862 123.14503758 21.86040345 127.625 23.625 C128.72618164 24.05522461 128.72618164 24.05522461 129.84960938 24.49414062 C131.35396015 25.08302772 132.85728654 25.67453784 134.35961914 26.26855469 C135.94519704 26.89447133 137.53303204 27.51469335 139.12280273 28.12988281 C162.66281376 37.33668364 185.03928288 50.48785894 205.03173828 65.91259766 C206.67615686 67.17876602 208.33395766 68.42518118 209.99609375 69.66796875 C220.80166384 77.79472512 231.33471599 86.40415304 240.6875 96.1875 C243.41159579 98.9304151 246.1573989 101.6494826 248.921875 104.3515625 C255.9971378 111.29463355 262.62241233 118.32722752 268.6875 126.1875 C269.71602898 127.49878958 270.74468403 128.80998028 271.7734375 130.12109375 C278.85500214 139.20840743 285.41917905 148.52528152 291.6875 158.1875 C292.43902344 159.23550781 293.19054687 160.28351563 293.96484375 161.36328125 C295.6875 164.1875 295.6875 164.1875 295.6875 168.1875 C269.35546875 183.234375 269.35546875 183.234375 266.76757812 184.71313477 C265.03055899 185.70574061 263.29358059 186.69841774 261.55664062 187.69116211 C257.24312289 190.15642849 252.92896876 192.62056501 248.61328125 195.08203125 C238.99692859 200.56879201 229.39777504 206.08410903 219.8125 211.625 C210.58454004 216.95764519 201.32831173 222.23676811 192.04418945 227.47094727 C185.51902101 231.14998926 179.00483287 234.84762012 172.5 238.5625 C171.63093018 239.05733887 170.76186035 239.55217773 169.86645508 240.06201172 C166.15830678 242.1781895 162.46306727 244.30658981 158.81640625 246.52734375 C157.74261719 247.17832031 156.66882813 247.82929688 155.5625 248.5 C154.67304687 249.05300781 153.78359375 249.60601562 152.8671875 250.17578125 C150.6875 251.1875 150.6875 251.1875 147.6875 250.1875 C146.1015625 247.9921875 146.1015625 247.9921875 144.3125 245.0625 C128.17925115 220.15086575 103.78831522 199.28146924 76.6875 187.1875 C76.02790283 186.88392578 75.36830566 186.58035156 74.6887207 186.26757812 C42.37697597 171.56021195 5.46503737 166.72792608 -29.21533203 174.72216797 C-31.85657304 175.30822214 -34.51310597 175.72050281 -37.1875 176.125 C-48.03965209 178.08872276 -58.45101154 182.36472827 -68.3125 187.1875 C-69.28832031 187.65027344 -70.26414062 188.11304688 -71.26953125 188.58984375 C-87.84880583 196.61344647 -102.03132247 207.54708104 -115.3125 220.1875 C-115.94671875 220.76886719 -116.5809375 221.35023438 -117.234375 221.94921875 C-130.42091612 234.41363976 -140.94389995 250.74649743 -148.75 267 C-149.1632251 267.85924072 -149.5764502 268.71848145 -150.00219727 269.60375977 C-152.33773791 274.6266925 -154.18343513 279.62026581 -155.67626953 284.95532227 C-156.29006194 287.10877737 -156.99644372 289.20448083 -157.75 291.3125 C-159.14946053 295.49607248 -160.3240246 299.73277077 -161.4375 304 C-161.77007812 305.26457031 -162.10265625 306.52914063 -162.4453125 307.83203125 C-164.63822412 317.70480428 -164.47885028 327.94016597 -164.4375 338 C-164.43266602 339.23468018 -164.42783203 340.46936035 -164.42285156 341.74145508 C-164.25866634 366.64999549 -159.56080126 388.39973647 -149.3125 411.1875 C-148.89613281 412.115625 -148.47976563 413.04375 -148.05078125 414 C-134.63255179 442.29746958 -112.75448956 466.63422475 -86.3125 483.1875 C-85.65072754 483.60483398 -84.98895508 484.02216797 -84.30712891 484.45214844 C-82.33682011 485.6883266 -80.35844498 486.9100272 -78.375 488.125 C-77.78493164 488.49052979 -77.19486328 488.85605957 -76.58691406 489.23266602 C-72.90482035 491.44429979 -69.23406729 493.0630713 -65.18920898 494.50170898 C-62.65267248 495.42861558 -60.24551402 496.5811273 -57.8125 497.75 C-53.32301604 499.82685269 -49.12767306 501.10823707 -44.3125 502.1875 C-43.52222412 502.51290771 -42.73194824 502.83831543 -41.91772461 503.17358398 C-39.25707591 504.20907026 -36.8159968 504.75124496 -34.00390625 505.22265625 C-33.00939453 505.39216797 -32.01488281 505.56167969 -30.99023438 505.73632812 C-29.96220703 505.90583984 -28.93417969 506.07535156 -27.875 506.25 C-26.85083984 506.42337891 -25.82667969 506.59675781 -24.77148438 506.77539062 C-21.95269961 507.25157368 -19.13286486 507.72078075 -16.3125 508.1875 C-15.32967041 508.36692139 -14.34684082 508.54634277 -13.33422852 508.73120117 C15.72365552 513.11911305 50.44948319 506.28641804 76.6875 493.1875 C77.28256348 492.89391602 77.87762695 492.60033203 78.49072266 492.29785156 C107.14024995 478.05238264 131.32618236 456.79607303 147.93359375 429.3203125 C148.51238281 428.61648438 149.09117187 427.91265625 149.6875 427.1875 C153.82342442 427.1875 154.84790586 427.57566879 158.265625 429.57421875 C159.16667969 430.09371094 160.06773437 430.61320312 160.99609375 431.1484375 C161.96675781 431.71820312 162.93742187 432.28796875 163.9375 432.875 C166.02491917 434.07877151 168.11349723 435.28053526 170.203125 436.48046875 C171.27755859 437.09841309 172.35199219 437.71635742 173.45898438 438.35302734 C178.491564 441.21258597 183.58717515 443.95117907 188.6875 446.6875 C196.49296629 450.88583745 204.23839089 455.17228707 211.9375 459.5625 C221.74415976 465.14964929 231.6673102 470.50069839 241.62695312 475.80761719 C248.09477638 479.25519412 254.5416226 482.73299958 260.9375 486.3125 C268.07387112 490.30636532 275.24770601 494.22810146 282.4375 498.125 C283.97519043 498.9595874 283.97519043 498.9595874 285.54394531 499.81103516 C290.22436784 502.34399713 294.9046471 504.85301227 299.6875 507.1875 C298.1141545 511.61993571 295.81191742 515.48008908 293.3125 519.4375 C292.87550781 520.13133789 292.43851563 520.82517578 291.98828125 521.54003906 C284.42791839 533.41832747 276.35091092 544.82813116 267.12792969 555.47607422 C265.99753706 556.81913394 264.89430157 558.18505691 263.80175781 559.55908203 C258.35553159 566.38216319 252.54818107 572.63846958 246.35888672 578.77685547 C244.81370622 580.31130216 243.27953991 581.85618002 241.74609375 583.40234375 C236.09196882 589.06357866 230.30599118 594.32792263 224.03369141 599.30664062 C221.92933743 600.99362742 219.92397206 602.73964687 217.9375 604.5625 C202.83060877 617.8812286 185.10981952 628.24145187 167.6875 638.1875 C166.37821533 638.93749268 166.37821533 638.93749268 165.04248047 639.70263672 C154.74475697 645.56704751 144.61684349 651.04878285 133.390625 654.90625 C130.50129059 655.90593532 127.69651509 656.97449879 124.8671875 658.125 C111.1940374 663.64605228 97.07263592 667.97824243 82.6875 671.1875 C81.85009277 671.38053711 81.01268555 671.57357422 80.14990234 671.77246094 C73.02472637 673.40507498 65.8746945 674.85489417 58.6875 676.1875 C57.6032373 676.38939941 56.51897461 676.59129883 55.40185547 676.79931641 C38.73184287 679.76714835 22.39655889 680.55884481 5.5 680.5625 C4.55581207 680.56440338 3.61162415 680.56630676 2.63882446 680.56826782 C-14.02611887 680.56445844 -30.24629551 679.43154421 -46.55078125 675.90625 C-50.73385844 675.10699122 -54.89227616 674.62586438 -59.125 674.1875 C-64.66748596 673.60375496 -69.80712161 672.68317385 -75.09375 670.89453125 C-77.3145763 670.18683836 -79.45369928 669.76427016 -81.75 669.375 C-86.95841955 668.39634792 -91.95239756 666.83983786 -97 665.25 C-97.80816162 664.99694092 -98.61632324 664.74388184 -99.44897461 664.4831543 C-104.20179123 662.96141272 -108.72453581 661.1596552 -113.3125 659.1875 C-114.71471905 658.71317286 -116.12134141 658.2517383 -117.53125 657.80078125 C-154.00252054 645.88755162 -189.71504302 623.42660572 -217.8359375 597.453125 C-219.85593822 595.60517481 -221.90521481 593.81575533 -223.98046875 592.03125 C-236.05036309 581.49332545 -247.56217091 569.9109408 -257.3125 557.1875 C-258.26746194 556.00638076 -259.22607911 554.82821145 -260.1875 553.65234375 C-274.6952892 535.87384061 -286.82975768 516.59489402 -297.875 496.5 C-298.36331299 495.61642822 -298.85162598 494.73285645 -299.35473633 493.82250977 C-302.07247432 488.80292215 -304.40488389 483.76167135 -306.43945312 478.42749023 C-307.29916549 476.22171258 -308.25057915 474.08305785 -309.25 471.9375 C-311.70477523 466.48886166 -313.63320864 460.85765335 -315.59057617 455.21533203 C-316.12636245 453.71034696 -316.68169841 452.21229167 -317.24731445 450.71826172 C-319.8015081 443.92619291 -321.75373927 437.10197181 -323.5 430.0625 C-324.01125976 428.01746094 -324.52541804 425.97314353 -325.04296875 423.9296875 C-325.26364014 423.0413623 -325.48431152 422.15303711 -325.71166992 421.23779297 C-326.12699335 419.21310063 -326.12699335 419.21310063 -327.3125 418.1875 C-327.83289386 415.68960948 -328.30792121 413.19941438 -328.75 410.6875 C-328.9970742 409.30179284 -329.24578529 407.91637659 -329.49609375 406.53125 C-329.62564453 405.81324219 -329.75519531 405.09523438 -329.88867188 404.35546875 C-330.30054112 402.24867218 -330.79815265 400.17854011 -331.30859375 398.09375 C-332.77797561 391.53945041 -333.33942368 384.86743627 -333.9375 378.1875 C-334.00286957 377.46406403 -334.06823914 376.74062805 -334.1355896 375.99526978 C-336.3499918 350.72723042 -337.0099921 324.43165927 -333.59033203 299.25 C-333.31003289 297.16918529 -333.07078656 295.08682081 -332.83984375 293 C-332.07170037 286.49337371 -330.94774092 280.36651766 -329.0859375 274.08984375 C-328.17923667 270.68742599 -327.59416061 267.28309699 -327 263.8125 C-323.36596441 243.36827808 -316.96473887 218.59994593 -305.859375 200.8671875 C-304.2824256 198.13540142 -303.27143061 195.3772375 -302.20166016 192.41894531 C-300.489466 188.12200557 -298.22601519 184.11049463 -296 180.0625 C-295.47656006 179.10964111 -294.95312012 178.15678223 -294.41381836 177.17504883 C-273.6359052 139.83729511 -245.37326794 103.34576965 -211.3125 77.1875 C-210.22471179 76.29157472 -209.14030533 75.3915339 -208.05859375 74.48828125 C-182.38919328 53.19197655 -152.88950994 37.21653876 -122.3125 24.1875 C-121.12398437 23.66414063 -119.93546875 23.14078125 -118.7109375 22.6015625 C-115.65758887 21.3310887 -112.67027752 20.30443879 -109.5 19.375 C-105.59215552 18.20760471 -101.71105116 16.99659832 -97.85546875 15.66796875 C-90.60614323 13.16996247 -83.61699642 10.80757409 -76.0078125 9.671875 C-72.91374511 9.1158397 -70.00987977 8.22035237 -67 7.3125 C-59.14775591 5.1511091 -51.18598077 4.05589903 -43.125 3 C-41.85422607 2.83322754 -40.58345215 2.66645508 -39.27416992 2.49462891 C-26.1475597 0.83363772 -13.22261244 -0.01659025 0 0 Z " fill="#FEFEFE" transform="translate(498.3125,171.8125)"/>
<path d="M0 0 C7.61539874 5.23019838 9.27750858 15.76214566 10.99431944 24.22392917 C12.47174582 32.48977476 12.34944632 40.76899404 12.2925415 49.1378479 C12.29429022 51.07966695 12.29780061 53.02148506 12.30289817 54.9632982 C12.31176301 60.24728867 12.29595259 65.53094947 12.27578592 70.81489801 C12.25840168 76.53242564 12.26436534 82.24993687 12.26739502 87.96748352 C12.26948548 97.85629249 12.2570083 107.74499534 12.23444366 117.63377762 C12.20184098 131.93102057 12.1915082 146.22821256 12.1864917 160.52548866 C12.17775199 183.72568083 12.15120698 206.92581522 12.11328125 230.12597656 C12.07649757 252.65364287 12.04818569 275.18129402 12.03125 297.70898438 C12.0307239 298.40434101 12.03019779 299.09969765 12.02965574 299.81612571 C12.02438131 306.79968021 12.01927811 313.78323482 12.01430031 320.76678953 C11.9725915 379.2592774 11.90205742 437.7517084 11.81152344 496.24414062 C10.82152344 496.57414062 9.83152344 496.90414063 8.81152344 497.24414062 C8.99714844 498.88382813 8.99714844 498.88382813 9.18652344 500.55664062 C9.25144674 506.5836868 5.88627025 511.26597912 2.81152344 516.24414062 C-2.16081876 514.75243797 -6.60693395 512.63956646 -11.18847656 510.24414062 C-11.18847656 509.58414062 -11.18847656 508.92414063 -11.18847656 508.24414062 C-11.88360352 508.14447998 -12.57873047 508.04481934 -13.29492188 507.94213867 C-16.71595546 507.11689947 -19.38435437 505.7410891 -22.48535156 504.07617188 C-23.07842102 503.75887619 -23.67149048 503.44158051 -24.28253174 503.1146698 C-25.53476904 502.44278296 -26.78529165 501.76769168 -28.03417969 501.08959961 C-29.91458179 500.06960201 -31.80093237 499.06139419 -33.68847656 498.0546875 C-39.72049006 494.81596401 -45.55339888 491.43684953 -51.19873047 487.55102539 C-54.32288699 485.49904872 -57.62918995 483.90627893 -61.00097656 482.30664062 C-66.83914921 479.46378761 -72.48750476 476.43737629 -78.05175781 473.08007812 C-85.88187475 468.4970707 -93.93694971 464.30474739 -101.94458008 460.04272461 C-114.08328006 453.57683753 -126.12297047 446.96690069 -138.06738281 440.14648438 C-143.40217153 437.10665173 -148.79178953 434.17223926 -154.18847656 431.24414062 C-155.84637648 430.33852711 -157.50393549 429.43228919 -159.16113281 428.52539062 C-168.03820582 423.67363354 -176.92560989 418.8434642 -185.84301758 414.06616211 C-196.18392964 408.5238885 -206.45071836 402.87560075 -216.64526367 397.06860352 C-224.44279882 392.63716233 -232.31943245 388.36391085 -240.21728516 384.11450195 C-247.00788516 380.45113749 -253.73600744 376.69103617 -260.43847656 372.86914062 C-269.34597936 367.79443538 -278.3358331 362.88958876 -287.37597656 358.05664062 C-288.29703186 357.56408783 -288.29703186 357.56408783 -289.23669434 357.06158447 C-296.67102721 353.07258797 -296.67102721 353.07258797 -304.18847656 349.24414062 C-304.89810547 350.35208984 -304.89810547 350.35208984 -305.62207031 351.48242188 C-312.85782548 362.58288838 -321.18065171 372.53334578 -330.18847656 382.24414062 C-330.7646875 382.88609375 -331.34089844 383.52804687 -331.93457031 384.18945312 C-344.71839734 397.79896163 -361.45486971 408.28845503 -378.18847656 416.24414062 C-379.02507812 416.664375 -379.86167969 417.08460938 -380.72363281 417.51757812 C-412.02936004 432.71077495 -450.37525054 436.54783358 -484.05908203 428.72265625 C-487.72102047 427.89974874 -491.42570773 427.33240228 -495.12988281 426.73632812 C-497.37089804 426.20052562 -499.1358563 425.27654765 -501.18847656 424.24414062 C-502.51398657 423.95552151 -503.84875634 423.70727793 -505.18847656 423.49414062 C-510.30969135 422.43778444 -514.59871144 420.21514085 -519.19628906 417.77929688 C-521.30782489 416.69596322 -523.46566148 415.70068835 -525.64941406 414.77148438 C-542.39438028 407.54490403 -557.32367946 396.03790767 -570.18847656 383.24414062 C-570.71683105 382.71981445 -571.24518555 382.19548828 -571.78955078 381.65527344 C-579.94047614 373.46321844 -586.73245367 364.74314267 -593.01318359 355.05273438 C-594.06255564 353.43791341 -595.13751341 351.83978552 -596.21582031 350.24414062 C-606.86934071 334.20558037 -612.53221752 315.75670677 -617.18847656 297.24414062 C-617.51138672 296.16326172 -617.51138672 296.16326172 -617.84082031 295.06054688 C-624.90163961 271.09499231 -621.6862857 238.66795311 -614.18847656 215.24414062 C-613.85589844 214.12007812 -613.52332031 212.99601563 -613.18066406 211.83789062 C-600.13973178 167.88892198 -568.78859476 132.86801675 -529.23535156 110.58007812 C-526.91244939 109.38940815 -524.58099765 108.28692662 -522.18847656 107.24414062 C-521.4653125 106.92445313 -520.74214844 106.60476563 -519.99707031 106.27539062 C-517.4170398 105.19273823 -514.81420703 104.21115276 -512.18847656 103.24414062 C-511.58600098 103.01581543 -510.98352539 102.78749023 -510.36279297 102.55224609 C-498.2981947 98.02765329 -486.22971842 95.52101303 -473.50390625 93.60375977 C-471.74586606 93.33071114 -469.99572354 93.00622446 -468.25097656 92.65820312 C-442.82411478 89.22038763 -416.28974373 94.24405084 -392.18847656 102.24414062 C-391.53008789 102.46215332 -390.87169922 102.68016602 -390.19335938 102.90478516 C-383.45264682 105.19162106 -377.43818752 108.04392423 -371.43457031 111.85742188 C-369.46545107 113.07313897 -367.54363046 114.04615378 -365.43847656 114.99414062 C-341.10376002 126.89220123 -320.48791615 149.91831261 -306.18847656 172.24414062 C-302.81822549 170.95213645 -299.65457753 169.5007572 -296.48535156 167.77539062 C-295.59678467 167.29215332 -294.70821777 166.80891602 -293.79272461 166.31103516 C-292.85082275 165.79395996 -291.9089209 165.27688477 -290.93847656 164.74414062 C-289.46084839 163.93565674 -289.46084839 163.93565674 -287.95336914 163.11083984 C-281.52527059 159.57598503 -275.17501881 155.93303991 -268.875 152.17578125 C-262.54433325 148.41481264 -256.12136361 144.82681405 -249.68847656 141.24414062 C-242.60227354 137.29574357 -235.53778053 133.32487608 -228.56347656 129.18164062 C-222.06980196 125.3239334 -215.51847593 121.57767928 -208.93847656 117.86914062 C-207.96700684 117.32153076 -206.99553711 116.7739209 -205.99462891 116.2097168 C-204.02995235 115.10236844 -202.06527136 113.99502795 -200.10058594 112.88769531 C-195.45720466 110.26703445 -190.82070289 107.63446298 -186.18847656 104.99414062 C-184.89647339 104.2591333 -184.89647339 104.2591333 -183.57836914 103.50927734 C-179.57926449 101.22418441 -175.60738535 98.90818065 -171.68457031 96.49414062 C-170.99427734 96.07036133 -170.30398438 95.64658203 -169.59277344 95.20996094 C-168.32455806 94.4259847 -167.06111227 93.6342137 -165.80371094 92.83300781 C-162.53173355 90.8055979 -161.17694982 90.24414062 -157.18847656 90.24414062 C-156.85847656 89.25414062 -156.52847656 88.26414062 -156.18847656 87.24414062 C-154.34448242 85.93237305 -154.34448242 85.93237305 -151.90332031 84.59960938 C-150.99155029 84.09437744 -150.07978027 83.58914551 -149.14038086 83.06860352 C-148.14562744 82.52840576 -147.15087402 81.98820801 -146.12597656 81.43164062 C-144.02614503 80.26915401 -141.92721569 79.10503654 -139.82910156 77.93945312 C-138.19231445 77.03308105 -138.19231445 77.03308105 -136.52246094 76.10839844 C-131.10021152 73.07644936 -125.73719773 69.94488555 -120.37597656 66.80664062 C-118.92082642 65.95718872 -118.92082642 65.95718872 -117.4362793 65.09057617 C-112.88472014 62.42859537 -108.34851278 59.7442039 -103.83300781 57.02148438 C-100.49214634 55.01141426 -97.13195776 53.07485215 -93.68847656 51.24414062 C-90.13224676 49.32617399 -86.64148959 47.34217386 -83.18847656 45.24414062 C-78.9844141 42.69542775 -74.71097615 40.31803161 -70.38769531 37.97851562 C-59.31849512 31.97763054 -48.36638806 25.79427688 -37.50097656 19.43164062 C-35.4711165 18.24789621 -33.44116778 17.06430382 -31.41113281 15.88085938 C-28.24747238 14.03593317 -25.08820991 12.18469155 -21.93798828 10.31689453 C-18.77963578 8.44501489 -15.61025792 6.59314871 -12.43847656 4.74414062 C-11.46821533 4.16172607 -10.4979541 3.57931152 -9.49829102 2.97924805 C-8.14610474 2.19771362 -8.14610474 2.19771362 -6.76660156 1.40039062 C-5.97672852 0.93439453 -5.18685547 0.46839844 -4.37304688 -0.01171875 C-2.18847656 -0.75585938 -2.18847656 -0.75585938 0 0 Z " fill="#0075C0" transform="translate(953.1884765625,249.755859375)"/>
<path d="M0 0 C0.556875 1.01578125 1.11375 2.0315625 1.6875 3.078125 C6.42377317 11.65326119 11.32047972 20.00594168 17 28 C17.49628906 28.69996094 17.99257812 29.39992188 18.50390625 30.12109375 C25.99959113 40.62922882 33.84136512 50.67181902 42.46533203 60.27661133 C43.52367728 61.46510308 44.57092536 62.66353829 45.60888672 63.86987305 C50.26910881 69.28527976 55.19638388 74.38894509 60.25 79.4375 C61.09119385 80.27788818 61.9323877 81.11827637 62.79907227 81.98413086 C67.84216208 86.97764042 72.9055293 91.71042576 78.515625 96.0625 C80.21307734 97.38629931 81.86877445 98.76495864 83.484375 100.1875 C112.09918854 125.32883907 149.83012281 145.08310338 186 157 C186.83080078 157.27730957 187.66160156 157.55461914 188.51757812 157.84033203 C198.56212278 161.17958986 208.51822173 164.41076092 218.9296875 166.39453125 C221.25463543 166.85301335 223.56016471 167.41140246 225.8515625 168.015625 C230.04593741 169.08240531 234.19785222 169.542463 238.5 169.9375 C245.76188999 170.66579782 252.8207575 171.81525729 259.9609375 173.31640625 C299.19163476 180.53629054 342.28629743 174.42604834 380.52148438 164.63427734 C382.0511228 164.24282732 383.58327858 163.86090015 385.11914062 163.49462891 C390.51459913 162.20762647 395.74528739 160.52034579 401 158.75 C402.37551025 158.28811279 402.37551025 158.28811279 403.77880859 157.81689453 C446.27678794 143.43899058 487.33296839 121.22970793 520.3046875 90.484375 C522.4271854 88.52798563 524.57601505 86.6337155 526.76171875 84.75 C531.33431789 80.76159389 535.65039328 76.54167574 539.9375 72.25 C540.73019287 71.45650146 541.52288574 70.66300293 542.33959961 69.84545898 C547.96975751 64.1561766 553.09669928 58.32844707 558 52 C559.43584768 50.29027767 560.87341569 48.58199894 562.3125 46.875 C570.83309765 36.44769519 578.3769455 25.29517106 585.30859375 13.76171875 C587.38280094 10.37496476 589.63001833 7.18466287 592 4 C600.34913795 8.05376151 608.52197057 12.33885361 616.61401367 16.88208008 C622.06630828 19.93912723 627.55385343 22.92373358 633.06030273 25.88208008 C642.12114832 30.75098477 651.06013453 35.73186775 659.83984375 41.08984375 C667.87113526 45.94435741 676.24652412 50.20853999 684.54833984 54.578125 C692.33840345 58.6842268 700.07379803 62.88294274 707.71875 67.25390625 C709.14767578 68.07084961 709.14767578 68.07084961 710.60546875 68.90429688 C712.53684334 70.01073211 714.46653235 71.12011482 716.39453125 72.23242188 C722.77944053 75.87415294 729.2554895 79.07765295 736 82 C736 82.66 736 83.32 736 84 C736.845625 84.268125 737.69125 84.53625 738.5625 84.8125 C742.13854067 86.0478595 745.53860908 87.476988 749 89 C753.62716137 83.27113355 755.37756204 78.2202803 756 71 C756.66 71 757.32 71 758 71 C757.39546357 83.0907285 752.45358087 92.86472152 744.5 101.8125 C742.01861889 103.98370847 740.02595594 104.82323936 737 106 C736.67 106.99 736.34 107.98 736 109 C733.91796875 110.359375 733.91796875 110.359375 731.1875 111.75 C725.96640904 114.4761165 720.88888654 117.38108371 715.82421875 120.38671875 C712.9304966 122.03970249 709.980544 123.509728 707 125 C704.04789973 126.5988904 701.1177249 128.23643595 698.1875 129.875 C696.66015625 130.7265625 695.1328125 131.578125 693.60546875 132.4296875 C692.84669434 132.8534668 692.08791992 133.27724609 691.30615234 133.71386719 C688.99404634 135.00332033 686.67885566 136.2871004 684.36328125 137.5703125 C680.55772014 139.68354742 676.77509759 141.83281434 673 144 C669.17925721 146.1896893 665.35504889 148.37109241 661.5 150.5 C657.93956162 152.46795139 654.40504462 154.4780174 650.875 156.5 C644.36527417 160.22797213 637.84119004 163.93034779 631.3125 167.625 C630.36294434 168.16318359 629.41338867 168.70136719 628.43505859 169.25585938 C622.81810652 172.43222196 617.17564509 175.55416288 611.49682617 178.61865234 C608.95974616 180.02227009 606.47861297 181.49579524 604 183 C600.68809731 185.00832277 597.35016822 186.93093105 593.9453125 188.77734375 C592.50333496 189.56020752 592.50333496 189.56020752 591.03222656 190.35888672 C589.53127441 191.17123779 589.53127441 191.17123779 588 192 C587.01225586 192.53512207 586.02451172 193.07024414 585.00683594 193.62158203 C580.93388491 195.82693922 576.85982758 198.03024489 572.78515625 200.23242188 C571.27888672 201.04743164 571.27888672 201.04743164 569.7421875 201.87890625 C568.77120117 202.40371582 567.80021484 202.92852539 566.79980469 203.46923828 C563.4880323 205.27991258 560.2090297 207.1449775 556.94189453 209.03491211 C554.97196502 210.0139329 553.14768576 210.55194108 551 211 C551 211.66 551 212.32 551 213 C549.80117187 213.63615234 549.80117187 213.63615234 548.578125 214.28515625 C543.00826626 217.25967002 537.48998538 220.26987712 532.0625 223.5 C527.70648279 226.07322341 523.28911635 228.40050034 518.75 230.625 C513.61493912 233.15302997 508.76874695 235.84513029 504 239 C500.20554084 241.45215048 496.44345907 243.83886453 492.375 245.8125 C487.91680002 247.97590942 483.64803223 250.45556323 479.35839844 252.93017578 C475.64193633 255.07107294 471.9021032 257.1544834 468.125 259.1875 C464.94799633 260.90391926 461.85540892 262.68108343 458.8125 264.625 C456.38468362 266.17352674 453.96650153 267.5578407 451.375 268.8125 C447.60491413 270.63863534 443.99483488 272.70902883 440.375 274.8125 C435.53794506 277.61820115 430.64762697 280.22979196 425.625 282.6875 C421.3119274 284.81056456 417.20101492 287.00471941 413.17578125 289.625 C410.23117034 291.48586722 407.21269117 293.21227439 404.1875 294.9375 C403.5783374 295.28490234 402.9691748 295.63230469 402.34155273 295.99023438 C398.7714611 298.01697791 395.17896125 299.99432679 391.5625 301.9375 C386.37313365 304.7400658 381.33089887 307.76452259 376.30102539 310.84155273 C372.60919013 313.08774511 368.87489227 315.07891348 365 317 C357.41649863 321.05338301 349.92209482 325.26760991 342.4375 329.5 C341.47392578 330.04269531 340.51035156 330.58539062 339.51757812 331.14453125 C334.86230594 333.77508964 330.25529936 336.44982039 325.70703125 339.26171875 C312.5418314 347.19451192 297.08367461 348.43007187 282.3515625 344.984375 C274.11093667 342.56405133 267.1688769 339.03281208 259.75 334.75 C258.72946533 334.16734375 257.70893066 333.5846875 256.6574707 332.984375 C251.48058554 330.02355852 246.32541137 327.02781739 241.1875 324 C237.15063917 321.62537598 233.04995333 319.50452265 228.84375 317.44921875 C225.09278059 315.53766703 221.42123753 313.49723987 217.75 311.4375 C217.07614258 311.06125488 216.40228516 310.68500977 215.70800781 310.29736328 C211.6826175 308.02573654 207.84277137 305.57279565 204 303 C202.80764183 302.36488677 201.60071224 301.75558125 200.375 301.1875 C195.7413392 298.94195669 191.35159675 296.31679966 186.9296875 293.68359375 C184.00251306 292.00144417 181.01985672 290.50799997 178 289 C175.71961842 287.72213084 173.44957932 286.4342258 171.1875 285.125 C166.6339833 282.50093953 162.06254805 279.91721338 157.46557617 277.37011719 C152.81954575 274.78832466 148.1913966 272.17484759 143.5625 269.5625 C142.58990234 269.01529297 141.61730469 268.46808594 140.61523438 267.90429688 C135.07605956 264.77764175 129.58943517 261.58393774 124.15942383 258.27099609 C122.18167375 257.10692974 120.19045973 256.06046021 118.125 255.0625 C111.54853395 251.86670726 105.32507654 247.98887204 99.0546875 244.23828125 C93.75443052 241.09346211 88.40809608 238.15169379 82.875 235.4375 C75.88342806 231.9957328 69.23813491 228.22224945 62.8125 223.8125 C59.66212875 221.78226075 56.45119929 220.45313654 53 219 C48.57771941 216.58784695 44.3225742 213.97544425 40.08984375 211.24609375 C37.95611261 209.93689343 37.95611261 209.93689343 35.44921875 208.73828125 C30.49645678 206.24226871 25.69752361 203.48745475 20.875 200.75 C19.3295752 199.87492798 19.3295752 199.87492798 17.75292969 198.98217773 C11.65886536 195.52620938 5.59273087 192.02938222 -0.4453125 188.4765625 C-4.03690779 186.40068632 -7.6892856 184.44238187 -11.33984375 182.47265625 C-13.99734408 181.00147031 -16.59353527 179.45514035 -19.1875 177.875 C-22.03736136 176.14360856 -24.87442235 174.51638814 -27.875 173.0625 C-32.37745853 170.87921528 -36.63990575 168.3157062 -40.94921875 165.77734375 C-44.53930869 163.68580608 -48.17814894 161.69986529 -51.83203125 159.72265625 C-61.4261617 154.505626 -70.96699525 149.18819311 -80.4375 143.75 C-87.18153012 139.88072926 -93.99430722 136.15140917 -100.84375 132.47265625 C-105.64094997 129.88295901 -110.32061743 127.21152397 -114.9140625 124.27734375 C-118.26425492 122.22582142 -121.73777194 120.40582648 -125.1953125 118.54296875 C-128.75963652 116.58209411 -132.23527474 114.49188853 -135.7109375 112.37890625 C-137.74710651 111.15234028 -139.80083652 109.97314892 -141.875 108.8125 C-144.42489558 107.33356056 -146.78860127 105.94603088 -149 104 C-149 103.34 -149 102.68 -149 102 C-149.99 101.67 -150.98 101.34 -152 101 C-157.66336656 94.70863916 -161.27638064 88.27696378 -163 80 C-160.25915079 82.36709704 -159.2632842 84.64405806 -158 88 C-150.66921877 84.02599145 -143.37979623 79.98596681 -136.125 75.875 C-134.63734131 75.03304077 -134.63734131 75.03304077 -133.11962891 74.17407227 C-123.91956631 68.96294512 -114.73813451 63.7194443 -105.56201172 58.46630859 C-101.35513877 56.05860143 -97.14622528 53.65446726 -92.9375 51.25 C-91.19660441 50.25522614 -89.4557193 49.26043393 -87.71484375 48.265625 C-78.68798828 43.10742187 -78.68798828 43.10742187 -76.9559021 42.11766052 C-75.77509312 41.44291108 -74.59428666 40.76815722 -73.41348267 40.09339905 C-70.40103955 38.37197735 -67.38855267 36.65063231 -64.37597656 34.92944336 C-59.03486331 31.87778716 -53.69410512 28.82551965 -48.35546875 25.76953125 C-36.38936289 18.92157932 -24.40304715 12.10979382 -12.38378906 5.35546875 C-10.87682013 4.49857695 -9.37755655 3.62785889 -7.88964844 2.73828125 C-3.29942434 0 -3.29942434 0 0 0 Z " fill="#00549D" transform="translate(206,676)"/>
<path d="M0 0 C0.65838867 0.2180127 1.31677734 0.43602539 1.99511719 0.66064453 C8.73582974 2.94748043 14.75028905 5.7997836 20.75390625 9.61328125 C22.72302549 10.82899835 24.64484611 11.80201315 26.75 12.75 C49.98076528 24.10830174 70.67412236 46.28767697 84.37109375 67.56640625 C85.91709426 70.04662888 85.91709426 70.04662888 88 72 C87.16082031 72.29390625 87.16082031 72.29390625 86.3046875 72.59375 C79.170712 75.25465404 72.75594547 78.87785061 66.20996094 82.71630859 C61.81092615 85.2715588 57.37000201 87.75342757 52.9375 90.25 C42.80280949 95.97099595 32.69273768 101.73408392 22.59277344 107.51611328 C18.22985371 110.01308372 13.86481349 112.50634193 9.5 115 C7.74998999 115.99998248 5.99998998 116.99998247 4.25 118 C-27.25 136 -27.25 136 -29.87915039 137.50219727 C-31.61551644 138.49452197 -33.35168441 139.48719337 -35.08764648 140.48022461 C-39.66961668 143.10064789 -44.25565831 145.71358973 -48.84765625 148.31640625 C-49.80414063 148.85974609 -50.760625 149.40308594 -51.74609375 149.96289062 C-53.57946833 151.00417619 -55.41404431 152.04335024 -57.25 153.08007812 C-58.07628906 153.54994141 -58.90257812 154.01980469 -59.75390625 154.50390625 C-60.47908447 154.91455322 -61.2042627 155.3252002 -61.95141602 155.74829102 C-64.07534707 157.04603795 -66.03343317 158.47629129 -68 160 C-66.84886719 160.59425781 -65.69773437 161.18851563 -64.51171875 161.80078125 C-54.25872547 167.12729387 -44.20138866 172.70994233 -34.2265625 178.5390625 C-29.20877505 181.47033262 -24.12950932 184.26933129 -19 187 C-18.32098633 187.36399902 -17.64197266 187.72799805 -16.94238281 188.10302734 C-14.62986195 189.34255042 -12.31526529 190.57811154 -10 191.8125 C-9.25669434 192.21033691 -8.51338867 192.60817383 -7.74755859 193.01806641 C-7.04711426 193.3897998 -6.34666992 193.7615332 -5.625 194.14453125 C-4.99851562 194.47815674 -4.37203125 194.81178223 -3.7265625 195.15551758 C-1.83044992 196.13026986 -1.83044992 196.13026986 1 197 C1 197.66 1 198.32 1 199 C2.32402832 199.41185547 2.32402832 199.41185547 3.67480469 199.83203125 C6.72757019 200.90430953 9.3711905 202.13720965 12.203125 203.6875 C13.17338623 204.21577393 14.14364746 204.74404785 15.14331055 205.28833008 C16.68112183 206.13560669 16.68112183 206.13560669 18.25 207 C19.86225464 207.8811145 19.86225464 207.8811145 21.50708008 208.7800293 C29.00439106 212.88353256 36.48145531 217.02350599 43.9453125 221.1875 C51.26882715 225.26935881 58.61537357 229.30972628 65.95785522 233.35733032 C72.97800988 237.22726607 79.99652462 241.09993025 87 245 C83.22485634 267.07310485 53.94176707 288.86255163 37 301 C29.68631654 306.09296652 22.04074729 310.17717459 14 314 C13.16339844 314.42023438 12.32679688 314.84046875 11.46484375 315.2734375 C-19.84088347 330.46663433 -58.18677397 334.30369295 -91.87060547 326.47851562 C-95.53254391 325.65560811 -99.23723117 325.08826165 -102.94140625 324.4921875 C-105.18242148 323.956385 -106.94737974 323.03240702 -109 322 C-110.32551001 321.71138089 -111.66027978 321.46313731 -113 321.25 C-118.12121479 320.19364381 -122.41023488 317.97100022 -127.0078125 315.53515625 C-129.11934833 314.45182259 -131.27718492 313.45654773 -133.4609375 312.52734375 C-150.20590372 305.30076341 -165.13520289 293.79376705 -178 281 C-178.52835449 280.47567383 -179.05670898 279.95134766 -179.60107422 279.41113281 C-187.75199958 271.21907782 -194.54397711 262.49900205 -200.82470703 252.80859375 C-201.87407908 251.19377279 -202.94903685 249.5956449 -204.02734375 248 C-214.68086415 231.96143975 -220.34374096 213.51256615 -225 195 C-225.32291016 193.91912109 -225.32291016 193.91912109 -225.65234375 192.81640625 C-232.71316305 168.85085169 -229.49780914 136.42381249 -222 113 C-221.66742188 111.8759375 -221.33484375 110.751875 -220.9921875 109.59375 C-207.95125521 65.64478135 -176.6001182 30.62387613 -137.046875 8.3359375 C-134.72397283 7.14526752 -132.39252109 6.04278599 -130 5 C-129.27683594 4.6803125 -128.55367188 4.360625 -127.80859375 4.03125 C-125.22856324 2.9485976 -122.62573047 1.96701214 -120 1 C-119.39752441 0.7716748 -118.79504883 0.54334961 -118.17431641 0.30810547 C-106.10971813 -4.21648734 -94.04124186 -6.7231276 -81.31542969 -8.64038086 C-79.5573895 -8.91342949 -77.80724697 -9.23791616 -76.0625 -9.5859375 C-50.63563822 -13.023753 -24.10126717 -8.00008979 0 0 Z " fill="#0086D4" transform="translate(561,352)"/>
<path d="M0 0 C2.04799112 0.95698899 4.06297032 1.9860692 6.05078125 3.0625 C6.62181076 3.369599 7.19284027 3.676698 7.78117371 3.99310303 C9.62853183 4.98893363 11.47056018 5.99418821 13.3125 7 C14.5909191 7.69215072 15.86956614 8.38388058 17.1484375 9.07519531 C24.84217359 13.24231342 32.49744781 17.4752562 40.10546875 21.796875 C44.9877129 24.56749353 49.89869412 27.28585722 54.8125 30 C55.68003906 30.48178711 56.54757812 30.96357422 57.44140625 31.45996094 C58.2509375 31.90629883 59.06046875 32.35263672 59.89453125 32.8125 C60.61487549 33.21082031 61.33521973 33.60914063 62.07739258 34.01953125 C64.12827942 35.125693 64.12827942 35.125693 67 36 C67 36.66 67 37.32 67 38 C67.88268555 38.27457031 68.76537109 38.54914062 69.67480469 38.83203125 C72.72757019 39.90430953 75.3711905 41.13720965 78.203125 42.6875 C79.17338623 43.21577393 80.14364746 43.74404785 81.14331055 44.28833008 C82.68112183 45.13560669 82.68112183 45.13560669 84.25 46 C85.32483643 46.58740967 86.39967285 47.17481934 87.50708008 47.7800293 C95.00439106 51.88353256 102.48145531 56.02350599 109.9453125 60.1875 C117.26882715 64.26935881 124.61537357 68.30972628 131.95785522 72.35733032 C138.97800988 76.22726607 145.99652462 80.09993025 153 84 C149.22485634 106.07310485 119.94176707 127.86255163 103 140 C95.68631654 145.09296652 88.04074729 149.17717459 80 153 C79.16339844 153.42023438 78.32679688 153.84046875 77.46484375 154.2734375 C46.15911653 169.46663433 7.81322603 173.30369295 -25.87060547 165.47851562 C-29.53254391 164.65560811 -33.23723117 164.08826165 -36.94140625 163.4921875 C-39.18242148 162.956385 -40.94737974 162.03240702 -43 161 C-44.32551001 160.71138089 -45.66027978 160.46313731 -47 160.25 C-52.12121479 159.19364381 -56.41023488 156.97100022 -61.0078125 154.53515625 C-63.11934833 153.45182259 -65.27718492 152.45654773 -67.4609375 151.52734375 C-84.20590372 144.30076341 -99.13520289 132.79376705 -112 120 C-112.79253174 119.21351074 -112.79253174 119.21351074 -113.60107422 118.41113281 C-121.74900452 110.22208799 -128.58436842 101.50829085 -134.83691406 91.80078125 C-135.89936544 90.15581036 -136.99119652 88.52991078 -138.0859375 86.90625 C-138.65570313 86.0296875 -139.22546875 85.153125 -139.8125 84.25 C-140.29332031 83.51265625 -140.77414062 82.7753125 -141.26953125 82.015625 C-142 80 -142 80 -141.36401367 78.06298828 C-139.58124699 75.36666137 -137.766343 74.46747257 -134.90625 72.9765625 C-133.875 72.43 -132.84375 71.8834375 -131.78125 71.3203125 C-130.6984375 70.76085937 -129.615625 70.20140625 -128.5 69.625 C-126.38423925 68.51526274 -124.26964318 67.40330197 -122.15625 66.2890625 C-121.115896 65.74056641 -120.07554199 65.19207031 -119.00366211 64.62695312 C-115.40441155 62.67739564 -111.90673588 60.59112384 -108.41259766 58.46044922 C-104.30275165 55.97258251 -100.11584777 53.62034039 -95.9375 51.25 C-89.21833692 47.42704852 -82.52676558 43.56404281 -75.875 39.625 C-70.5324677 36.46384767 -65.15343415 33.40538417 -59.6875 30.4609375 C-51.07404069 25.77862096 -42.62699175 20.78979595 -34.16210938 15.84594727 C-32.05893339 14.61817444 -29.95476996 13.39209149 -27.84960938 12.16772461 C-23.38674715 9.57109248 -18.92991989 6.97013967 -14.51953125 4.28515625 C-13.55950195 3.70991211 -13.55950195 3.70991211 -12.58007812 3.12304688 C-10.94995657 2.14497394 -9.32808798 1.15318094 -7.70703125 0.16015625 C-4.42806243 -1.2451161 -3.38918449 -0.95572803 0 0 Z " fill="#00549D" transform="translate(495,513)"/>
<path d="M0 0 C10.89 0 21.78 0 33 0 C33 21.78 33 43.56 33 66 C51.15 66 69.3 66 88 66 C88 44.22 88 22.44 88 0 C98.89 0 109.78 0 121 0 C121 21.78 121 43.56 121 66 C131.89 66 142.78 66 154 66 C154 76.89 154 87.78 154 99 C143.11 99 132.22 99 121 99 C121 117.15 121 135.3 121 154 C131.89 154 142.78 154 154 154 C154 164.89 154 175.78 154 187 C143.11 187 132.22 187 121 187 C121 208.78 121 230.56 121 253 C110.11 253 99.22 253 88 253 C88 231.22 88 209.44 88 187 C69.85 187 51.7 187 33 187 C33 208.78 33 230.56 33 253 C22.11 253 11.22 253 0 253 C0 231.22 0 209.44 0 187 C-10.89 187 -21.78 187 -33 187 C-33 176.11 -33 165.22 -33 154 C-22.11 154 -11.22 154 0 154 C0 135.85 0 117.7 0 99 C-10.89 99 -21.78 99 -33 99 C-33 88.11 -33 77.22 -33 66 C-22.11 66 -11.22 66 0 66 C0 44.22 0 22.44 0 0 Z " fill="#FCFDFE" transform="translate(767,385)"/>
<path d="M0 0 C18.15 0 36.3 0 55 0 C55 18.15 55 36.3 55 55 C36.85 55 18.7 55 0 55 C0 36.85 0 18.7 0 0 Z " fill="#0276C0" transform="translate(800,484)"/>
<path d="M0 0 C0.66 0 1.32 0 2 0 C2.00135653 0.98360119 2.00271306 1.96720237 2.00411069 2.98060966 C2.08468325 61.27587195 2.17570969 119.57111173 2.28005161 177.86633627 C2.2925772 184.86580607 2.30500556 191.86527603 2.31738281 198.86474609 C2.31861614 199.56126852 2.31984946 200.25779095 2.32112016 200.97542012 C2.36103279 223.54188146 2.39452809 246.10834676 2.42468691 268.67482306 C2.45659947 292.52741378 2.49584255 316.37998191 2.54279006 340.232548 C2.57067203 354.51855498 2.59270637 368.80454641 2.60726251 383.09057328 C2.61780403 392.88682511 2.63562594 402.68304683 2.65916704 412.47927597 C2.67253439 418.13126479 2.68269736 423.78321142 2.68421364 429.4352169 C2.68567374 434.61337241 2.69631047 439.79142635 2.71413441 444.96955064 C2.7189701 446.83919421 2.72048669 448.70885005 2.71827881 450.57849857 C2.70873546 460.25010557 2.91692392 469.49814992 5 479 C1.72045706 476.81363804 1.5552707 476.65209269 0.82753181 473.05822945 C-0.58994525 464.81556662 -0.26846707 456.4036043 -0.24050903 448.06832886 C-0.24138185 446.13341596 -0.24313424 444.1985033 -0.24568737 442.26359189 C-0.25014984 436.96161997 -0.24217231 431.65972917 -0.23213124 426.35776758 C-0.22348321 420.63464522 -0.22641786 414.91152733 -0.22793579 409.18840027 C-0.22898378 399.277657 -0.22271611 389.3669401 -0.21146011 379.45620346 C-0.1951965 365.12699697 -0.18999622 350.79780321 -0.18748413 336.46858849 C-0.18310838 313.21961154 -0.16981974 289.97064896 -0.15087891 266.72167969 C-0.13250243 244.13932366 -0.11833893 221.55697139 -0.10986328 198.97460938 C-0.10960023 198.27820053 -0.10933718 197.58179168 -0.10906615 196.86427953 C-0.10642905 189.87048799 -0.10387743 182.87669642 -0.10138843 175.88290483 C-0.08051561 117.25526063 -0.0452316 58.62763039 0 0 Z " fill="#0074C1" transform="translate(40,278)"/>
<path d="M0 0 C3.25861921 5.64827329 3.14581949 11.67370663 3.12304783 18.03159904 C3.12420167 18.82699262 3.12535552 19.6223862 3.12654433 20.44188261 C3.12919465 23.11149383 3.12470186 25.78104494 3.12025452 28.45065308 C3.12069054 30.38211332 3.12156603 32.31357351 3.12284368 34.24503338 C3.12508248 39.55601979 3.12107572 44.86698609 3.11606562 50.17796993 C3.11175252 55.90388934 3.11320816 61.62980758 3.1139679 67.35572815 C3.11449258 77.27744694 3.11135152 87.19915917 3.10573006 97.12087631 C3.09760762 111.46606567 3.09499907 125.81125185 3.09374207 140.15644325 C3.09155272 163.42981817 3.08490439 186.7031895 3.07543945 209.9765625 C3.06625504 232.58626284 3.05917141 255.19596224 3.05493164 277.80566406 C3.05480011 278.50259902 3.05466859 279.19953397 3.05453308 279.91758817 C3.05321456 286.9164982 3.05193874 293.91540825 3.05069422 300.9143183 C3.04025321 359.60954784 3.02260699 418.3047739 3 477 C0.50623214 474.50623214 0.75666131 473.03203458 0.72722733 469.62901711 C0.73087701 468.87220706 0.73452669 468.115397 0.73828697 467.33565331 C0.73429091 466.53136812 0.73029485 465.72708293 0.72617769 464.89842546 C0.71511534 462.17444098 0.718417 459.45065666 0.7215271 456.72665405 C0.71652922 454.76564541 0.71065494 452.80463883 0.70397437 450.8436352 C0.68809881 445.4323959 0.68473955 440.02120841 0.68332577 434.60994864 C0.67964483 428.78305664 0.664496 422.95619351 0.65071106 417.12931824 C0.62839315 407.02637405 0.61340717 396.92344007 0.60334396 386.82047653 C0.58878359 372.21313279 0.56326096 357.60582205 0.53501268 342.99849947 C0.48931892 319.30141834 0.45288461 295.60433108 0.421875 271.90722656 C0.39172366 248.88215233 0.35739101 225.85709056 0.31738281 202.83203125 C0.31615181 202.12261774 0.31492081 201.41320424 0.3136525 200.68229335 C0.30128592 193.55823749 0.28883417 186.43418178 0.27632002 179.31012618 C0.25082793 164.79689038 0.22590438 150.28365363 0.20132446 135.77041626 C0.20019355 135.1030836 0.19906264 134.43575094 0.19789747 133.74819608 C0.12240963 89.16547852 0.06021727 44.58274047 0 0 Z " fill="#005EA8" transform="translate(962,269)"/>
<path d="M0 0 C0.66 0 1.32 0 2 0 C1.57669946 6.56115839 0.76255521 13.42256522 -3 19 C-5.640625 19.78125 -5.640625 19.78125 -8 20 C-8.33 19.34 -8.66 18.68 -9 18 C-8.01 18 -7.02 18 -6 18 C-2.63438409 11.9394075 -0.38669459 6.96050253 0 0 Z " fill="#005DA8" transform="translate(962,747)"/>
</svg>
