<?xml version="1.0" encoding="UTF-8"?>
<svg version="1.1" xmlns="http://www.w3.org/2000/svg" width="2048" height="2048">
<path d="M0 0 C675.84 0 1351.68 0 2048 0 C2048 675.84 2048 1351.68 2048 2048 C1372.16 2048 696.32 2048 0 2048 C0 1372.16 0 696.32 0 0 Z " fill="#512BD4" transform="translate(0,0)"/>
<path d="M0 0 C33 0 66 0 100 0 C104.5256698 6.46524258 108.78096932 12.78713196 112.75 19.5625 C116.49022569 25.87058066 120.29688634 32.1133531 124.3125 38.25 C128.77534436 45.07134442 133.12598671 51.95699331 137.4375 58.875 C141.93811709 66.09632912 146.44805965 73.31089787 151 80.5 C158.69938433 92.66710464 166.31258163 104.88808464 173.93652344 117.10253906 C180.74607684 128.01091318 187.56495297 138.91268089 194.44213867 149.77856445 C199.13536416 157.19991801 203.78400195 164.64891626 208.43359375 172.09765625 C212.27149019 178.24299963 216.12512731 184.37791117 220 190.5 C225.17684221 198.67913011 230.30799264 206.88633973 235.43359375 215.09765625 C239.27149053 221.24300017 243.12520428 227.37786211 247 233.5 C254.69913904 245.66726188 262.31258021 257.88808236 269.93652344 270.10253906 C276.74607684 281.01091318 283.56495297 291.91268089 290.44213867 302.77856445 C295.13536416 310.19991801 299.78400195 317.64891626 304.43359375 325.09765625 C308.27149019 331.24299963 312.12512731 337.37791117 316 343.5 C321.17347546 351.67381082 326.30299148 359.87463713 331.42260742 368.08227539 C334.86463338 373.5968526 338.32658817 379.09770092 341.81542969 384.58276367 C347.76003006 393.93300349 353.45013806 403.41052616 359 413 C358.85617372 409.9582272 358.70995805 406.9165973 358.5625 403.875 C358.52318359 403.03839844 358.48386719 402.20179688 358.44335938 401.33984375 C358.20354099 396.43279064 357.88417156 391.5425834 357.48774052 386.64560509 C356.92089212 378.73592493 356.86316831 370.85246031 356.87974548 362.9281311 C356.87930838 361.35274881 356.87843091 359.7773666 356.87715632 358.20198476 C356.87493875 353.91240971 356.87889477 349.62286002 356.88393438 345.33328819 C356.88827836 340.69272747 356.88678967 336.05216802 356.8860321 331.41160583 C356.88550936 323.3845753 356.88863003 315.35755293 356.89426994 307.33052444 C356.90241884 295.72498289 356.90500363 284.11944526 356.90625793 272.51390116 C356.90844314 253.68179125 356.91508879 234.84968568 356.92456055 216.01757812 C356.93374843 197.73079449 356.94082253 179.44401204 356.94506836 161.15722656 C356.94546244 159.46463677 356.94546244 159.46463677 356.94586449 157.73785324 C356.94716959 152.07667913 356.94843328 146.415505 356.94967639 140.75433087 C356.96003244 93.83621672 356.97846182 46.91811061 357 0 C384.39 0 411.78 0 440 0 C440 175.56 440 351.12 440 532 C408.65 532 377.3 532 345 532 C340.05 524.08 335.1 516.16 330 508 C325.92000887 501.57311132 321.83831702 495.14780844 317.74267578 488.73095703 C314.7834756 484.09357776 311.82895989 479.4532185 308.875 474.8125 C308.29226318 473.89710449 307.70952637 472.98170898 307.10913086 472.03857422 C302.90398824 465.42939841 298.7174773 458.8086497 294.53857422 452.18286133 C290.70769308 446.11212494 286.85663068 440.05440494 283 434 C278.1622837 426.40541918 273.34256929 418.79984917 268.5390625 411.18359375 C264.70797641 405.11263987 260.85678831 399.05465239 257 393 C252.1622837 385.40541918 247.34256929 377.79984917 242.5390625 370.18359375 C238.70797631 364.11263971 234.85675504 358.05467372 231 352 C224.15122199 341.24713745 217.34153647 330.46994638 210.54101562 319.68652344 C204.12052485 309.50717391 197.67724978 299.34275863 191.21142578 289.19213867 C186.97106673 282.53280243 182.75057176 275.86120069 178.5390625 269.18359375 C174.70797641 263.11263987 170.85678831 257.05465239 167 251 C162.1622837 243.40541918 157.34256929 235.79984917 152.5390625 228.18359375 C148.70797641 222.11263987 144.85678831 216.05465239 141 210 C136.1622837 202.40541918 131.34256929 194.79984917 126.5390625 187.18359375 C123.30035001 182.05134829 120.04894987 176.92734946 116.78857422 171.80883789 C115.59627183 169.9364056 114.40519043 168.06319528 113.21533203 166.18920898 C110.45432023 161.84204351 107.68244763 157.50366978 104.8671875 153.19140625 C96.71834427 140.63222886 88.23679746 127.32974947 82.97509766 113.25927734 C82.21914345 110.84124218 82.21914345 110.84124218 80 110 C80.13720634 110.79425424 80.27441268 111.58850848 80.41577679 112.40683103 C81.68228483 120.10522866 82.39851236 127.63363536 82.61790466 135.42791748 C82.65554725 136.62081729 82.69318984 137.81371709 82.73197311 139.04276538 C83.17751789 154.84540215 83.1348452 170.65325037 83.11606562 186.46071649 C83.11167375 191.11602783 83.11321362 195.77133816 83.1139679 200.426651 C83.11448769 208.45780017 83.11139841 216.4889411 83.10573006 224.5200882 C83.09754037 236.13122395 83.09499226 247.7423558 83.09374207 259.35349414 C83.09156317 278.20002047 83.08493487 297.04654244 83.07543945 315.89306641 C83.06623508 334.18115212 83.05916911 352.46923665 83.05493164 370.75732422 C83.05466892 371.88801328 83.05440619 373.01870233 83.05413551 374.1836547 C83.0528303 379.85700807 83.05156663 385.53036146 83.05032361 391.20371485 C83.03998724 438.13581378 83.02156867 485.06790462 83 532 C55.61 532 28.22 532 0 532 C0 356.44 0 180.88 0 0 Z " fill="#FEFEFE" transform="translate(504,768)"/>
<path d="M0 0 C92.4 0 184.8 0 280 0 C280 24.75 280 49.5 280 75 C215.98 75 151.96 75 86 75 C86 124.83 86 174.66 86 226 C144.74 226 203.48 226 264 226 C264 250.42 264 274.84 264 300 C205.26 300 146.52 300 86 300 C86 352.14 86 404.28 86 458 C153.65 458 221.3 458 291 458 C291 482.42 291 506.84 291 532 C194.97 532 98.94 532 0 532 C0 356.44 0 180.88 0 0 Z " fill="#FEFEFE" transform="translate(1058,768)"/>
<path d="M0 0 C127.05 0 254.1 0 385 0 C385 24.75 385 49.5 385 75 C335.5 75 286 75 235 75 C235 225.81 235 376.62 235 532 C206.62 532 178.24 532 149 532 C149 381.19 149 230.38 149 75 C99.83 75 50.66 75 0 75 C0 50.25 0 25.5 0 0 Z " fill="#FEFEFE" transform="translate(1379,768)"/>
<path d="M0 0 C11.51345587 8.43019142 20.05602736 18.83641863 22.95703125 33.09765625 C25.02705967 48.51820502 21.11974656 61.25310795 11.8828125 73.5859375 C4.45701766 82.81513966 -6.99058074 89.6328442 -18.6953125 91.6875 C-31.30959524 92.67143398 -43.40964434 92.97950968 -54.6953125 86.6875 C-55.50742187 86.24148438 -56.31953125 85.79546875 -57.15625 85.3359375 C-59.47883966 83.91701754 -61.57280885 82.39021087 -63.6953125 80.6875 C-64.44425781 80.08679687 -65.19320313 79.48609375 -65.96484375 78.8671875 C-70.98110735 74.37220513 -74.18692711 69.51091391 -77.1953125 63.5625 C-77.53377197 62.8936377 -77.87223145 62.22477539 -78.22094727 61.53564453 C-83.04844667 51.39577134 -83.74129961 37.50558277 -80.0703125 26.8125 C-79.32581306 25.08308985 -78.53420306 23.37314573 -77.6953125 21.6875 C-77.2828125 20.84832031 -76.8703125 20.00914063 -76.4453125 19.14453125 C-69.26034172 5.97888876 -57.80592406 -2.40347191 -43.69091797 -6.95947266 C-28.92204868 -10.98604226 -12.77175183 -8.37491923 0 0 Z " fill="#FEFDFE" transform="translate(394.6953125,1216.3125)"/>
</svg>
